<?xml version="1.0" encoding="UTF-8"?>
<svg xmlns="http://www.w3.org/2000/svg" xmlns:xlink="http://www.w3.org/1999/xlink" viewBox="0 0 26 26" version="1.1" width="104px" height="104px">
<g id="surface1">
<path style=" " d="M 2.101563 23 C 2.101563 23 2.101563 22.5 2.101563 22.300781 C 2.101563 20.101563 5.898438 18.101563 9.5 17.398438 C 9.5 17.398438 9.800781 17 9.800781 16 C 8 16 4 17 4 17 C 4 5 6.300781 0 12.5 0 C 14.398438 0 15 1 15 1 C 18.398438 1 21 3 21 17 C 21 17 17.601563 16 15.300781 16 C 15.300781 17 15.5 17.398438 15.5 17.398438 C 19.101563 18.101563 22.898438 20.101563 22.898438 22.300781 C 22.898438 22.5 22.898438 23 22.898438 23 C 22.898438 24.398438 17.5 25.898438 12.5 25.898438 C 7.601563 25.800781 2.101563 25.300781 2.101563 23 Z "/>
</g>
</svg>
